<svg width="24" height="24" viewBox="0 0 24 24" fill="none" xmlns="http://www.w3.org/2000/svg">
<g clip-path="url(#clip0_0_1512)">
<path d="M24.048 12C24.048 18.624 18.672 24 12.048 24C5.424 24 0.0480042 18.624 0.0480042 12C0.0480042 5.376 5.424 0 12.048 0C18.672 0 24.048 5.376 24.048 12Z" fill="white"/>
<path d="M13.2319 5.18399C12.437 5.05601 11.6268 5.05601 10.8319 5.18399C10.7681 5.18399 10.7359 5.15212 10.8 5.08799L12.048 4.12799L13.296 5.08799C13.3279 5.15174 13.296 5.18399 13.2322 5.18399M11.1847 11.136C11.1529 11.136 11.121 11.1679 11.121 11.1997C11.3771 11.3917 11.5372 11.8399 12.081 11.8399C12.6247 11.8399 12.7849 11.3917 13.041 11.1997C13.041 11.1679 13.0091 11.136 12.9772 11.136C12.3837 11.232 11.7786 11.232 11.1851 11.136M12.0491 10.3999C11.889 10.3999 11.8571 10.3361 11.7611 10.3361C11.6336 10.3361 11.5372 10.3999 11.4412 10.4962C11.4412 10.5281 11.4731 10.56 11.4731 10.5922C11.697 10.6241 11.793 10.7524 12.0169 10.7524C12.2407 10.7524 12.3694 10.6249 12.5606 10.5922C12.5925 10.5604 12.5925 10.5285 12.5925 10.4962C12.4965 10.4002 12.4005 10.3687 12.2726 10.3361C12.2407 10.3361 12.2089 10.3999 12.0487 10.3999M24.0169 12.6724C24.0169 12.9604 23.985 13.2484 23.9531 13.5364C22.6091 13.7602 22.0969 12.5445 20.7206 12.6082C20.8166 12.8962 20.8807 13.2157 20.9126 13.5045C22.0646 13.5045 22.5127 14.5605 23.7926 14.4326C23.7289 14.7525 23.6325 15.0727 23.5365 15.3926C22.5127 15.4886 22.1602 14.4964 21.009 14.5286V15.3285C22.0009 15.3285 22.3215 16.2247 23.2815 16.1925L22.8975 17.1525C22.2255 17.1206 21.9694 16.2562 20.9456 16.32L20.8181 16.992C21.7144 16.9282 21.9056 17.76 22.5461 17.8245C22.386 18.1125 22.1936 18.432 22.0024 18.6885C21.6184 18.4965 21.2985 17.856 20.5624 17.8245L20.7544 17.1206C20.0182 17.0887 19.3144 16.8007 18.7706 16.2881C18.9626 15.1361 17.2031 13.9841 17.2031 13.152C17.2031 12.2557 17.6512 11.7439 17.6512 10.5281C17.6194 9.56812 17.235 8.63999 16.5637 7.96799C16.4362 7.84049 16.3076 7.74412 16.1475 7.64812C16.8195 8.38424 17.2035 9.31199 17.235 10.3042C17.235 11.4562 16.6912 12.0641 16.6912 13.1205C16.6912 14.1769 18.2272 15.1042 18.2272 16.1925C18.2272 16.6087 18.0997 17.0565 17.6512 17.8564C18.2272 18.4639 18.9952 18.8482 19.8274 18.9439C19.9875 18.9757 20.1154 18.8801 20.1799 18.72C20.2436 18.5925 20.3074 18.4639 20.34 18.336C20.9801 18.3679 21.2681 18.9435 21.6199 19.1685L21.0124 19.9046C20.7885 19.6485 20.4686 19.2007 19.9886 19.0721C19.8926 19.2322 19.8285 19.392 19.7325 19.5521C20.1165 19.6481 20.4045 20.064 20.5965 20.3201L19.8926 20.9921C19.7325 20.7041 19.5086 20.4802 19.2206 20.2882C19.1246 20.4157 19.0286 20.5444 18.9007 20.6722C19.1246 20.8642 19.317 21.0885 19.4445 21.3442L18.5482 21.9844C18.3881 20.7682 16.7242 19.9369 17.172 18.5284C16.98 18.8164 16.884 19.1359 16.8521 19.4565C16.8521 20.4802 17.9396 21.2805 18.036 22.3046L17.328 22.6875C17.2961 21.5674 16.1441 20.3512 16.1441 19.4235C16.1441 18.3997 17.4881 17.376 17.4881 16.1595C17.4881 14.943 15.9521 14.112 15.9521 13.0556C15.9521 11.9992 16.6241 11.3917 16.6241 10.0155C16.6241 8.99174 16.176 8.03174 15.408 7.35937L14.9917 7.07137C15.6956 7.90387 16.0792 8.63887 16.0792 9.79124C16.0792 11.0711 15.3431 11.775 15.3431 13.0237C15.3431 14.2725 16.8469 14.9756 16.8469 16.1276C16.8469 17.2796 15.4387 18.2715 15.4387 19.4876C15.4387 20.5751 16.6867 21.6637 16.6867 22.9751C16.4149 23.0956 16.1372 23.2024 15.8546 23.295C16.0147 21.9825 14.6066 20.6389 14.6066 19.5825C14.6066 18.3986 16.0785 17.4064 16.0785 16.1587C16.0785 14.9111 14.5747 14.3025 14.5747 13.0226C14.5747 11.7427 15.5029 11.0066 15.5029 9.59887C15.5029 8.54287 14.991 7.51874 14.1589 6.87899L14.0951 6.84712C14.0314 6.78337 13.9676 6.84712 13.9991 6.91087C14.5751 7.61474 14.8954 8.51099 14.8631 9.40687C14.8631 10.7194 13.8071 11.775 13.8071 13.023C13.8071 14.5267 15.2152 14.943 15.2152 16.1591C15.2152 17.3752 13.7115 18.3671 13.7115 19.6792C13.7115 20.8954 15.1515 22.2067 14.8954 23.6152L14.0314 23.8072C14.2875 22.0792 12.8794 20.8312 12.8794 19.7111C12.8794 18.495 14.4469 17.4071 14.4469 16.191C14.4469 15.0709 13.3267 14.6872 13.167 13.5349C13.167 13.3747 13.0395 13.2787 12.879 13.2787H12.8471C12.5239 13.3764 12.1916 13.4407 11.8552 13.4707C11.5354 13.4389 11.1832 13.3747 10.8634 13.2787C10.7032 13.2469 10.5754 13.3425 10.5435 13.5026V13.5345C10.3834 14.6865 9.26362 15.0705 9.26362 16.1906C9.26362 17.4067 10.8311 18.4946 10.8311 19.7107C10.8311 20.8309 9.423 22.0789 9.67912 23.8069L8.81512 23.6149C8.59125 22.2386 10.0312 20.895 10.0312 19.6789C10.0312 18.3664 8.5275 17.4064 8.5275 16.1587C8.5275 14.9111 9.93562 14.4949 9.93562 13.0226C9.93562 11.7427 8.87962 10.6864 8.87962 9.40649C8.84775 8.51024 9.16762 7.61399 9.74362 6.91049C9.80737 6.84674 9.74362 6.78299 9.64762 6.84674L9.58387 6.87862C8.75137 7.51874 8.23987 8.54249 8.23987 9.59849C8.23987 11.0385 9.168 11.7424 9.168 13.0222C9.168 14.3021 7.66425 14.9104 7.66425 16.1584C7.66425 17.4064 9.13612 18.4309 9.13612 19.5821C9.13612 20.6381 7.728 22.014 7.88812 23.2946C7.60556 23.202 7.32784 23.0952 7.056 22.9747C7.08787 21.6949 8.33587 20.6066 8.33587 19.4872C8.33587 18.2711 6.92775 17.3111 6.92775 16.1272C6.92775 14.9434 8.62387 14.3032 8.62387 13.0552C8.62387 11.8072 7.88775 11.1034 7.88775 9.82274C7.88775 8.67074 8.27175 7.93462 8.97525 7.10287C8.81512 7.16662 8.68725 7.26299 8.559 7.39087C7.791 8.06287 7.37512 9.02287 7.34287 10.047C7.34287 11.391 8.01487 12.0307 8.01487 13.0871C8.01487 14.1435 6.47887 15.0071 6.47887 16.191C6.47887 17.3749 7.82287 18.4309 7.82287 19.455C7.82287 20.3831 6.67087 21.5989 6.639 22.719C6.41512 22.5915 6.159 22.4629 5.93512 22.335C6.03112 21.3112 7.119 20.511 7.119 19.4869C7.08712 19.167 6.9915 18.8149 6.79912 18.5587C7.24725 19.9669 5.583 20.7986 5.42287 22.0147C5.13487 21.8227 4.81537 21.5985 4.52662 21.3746C4.65412 21.1185 4.8465 20.8946 5.07037 20.7026C4.97437 20.5751 4.8465 20.4465 4.7505 20.3186C4.49437 20.5106 4.2705 20.7349 4.0785 21.0225C3.82237 20.7986 3.5985 20.5744 3.37462 20.3505C3.5985 20.0944 3.85462 19.6785 4.23862 19.5825C4.14262 19.4224 4.04662 19.2626 3.9825 19.1025C3.53437 19.23 3.2145 19.6462 2.95875 19.935C2.73487 19.6789 2.5425 19.455 2.35125 19.1989C2.70375 18.975 2.99137 18.399 3.63112 18.3664C3.69487 18.4939 3.72712 18.6225 3.79125 18.7504C3.855 18.9105 3.98325 18.9742 4.14375 18.9742C4.97625 18.8782 5.74387 18.4942 6.31987 17.9182C5.87175 17.0857 5.74387 16.6702 5.74387 16.2544C5.74387 15.1669 7.27987 14.2384 7.27987 13.1824C7.27987 12.1264 6.73612 11.5185 6.73612 10.3661C6.7678 9.36931 7.15347 8.41637 7.824 7.67812C7.66387 7.77412 7.536 7.87012 7.40775 7.99799C6.73575 8.66999 6.35175 9.59812 6.32025 10.5581C6.32025 11.7742 6.76837 12.2861 6.76837 13.182C6.76837 14.0145 5.0085 15.1657 5.20087 16.3181C4.65712 16.83 3.95287 17.118 3.21712 17.118L3.40912 17.8219C2.673 17.8537 2.35312 18.4939 1.96912 18.6859C1.77712 18.3979 1.61662 18.1099 1.42537 17.8219C2.0655 17.7581 2.25787 16.9256 3.15337 16.9894C3.1215 16.7655 3.08962 16.5412 3.02587 16.3174C2.00212 16.2536 1.746 17.1172 1.074 17.1499C0.91387 16.83 0.785995 16.5097 0.689995 16.1899C1.65 16.2217 1.96987 15.3259 2.9625 15.3259V14.5275C1.77862 14.4956 1.4265 15.4875 0.434995 15.3915C0.338995 15.0716 0.27487 14.7514 0.17887 14.4315C1.45875 14.5916 1.90687 13.5034 3.05887 13.5034L3.25087 12.6071C1.87462 12.5434 1.36275 13.7591 0.0183704 13.5352C-0.0135046 13.2472 -0.0453796 12.9592 -0.0453796 12.6712C1.52212 12.8314 2.13075 11.5511 3.57075 11.7112C3.69825 11.3587 3.89062 11.0392 4.05075 10.7194C2.25825 10.3995 1.65075 11.9032 -0.0453796 11.6794C0.143995 5.05612 5.64749 -0.160132 12.2719 0.0318682C18.6394 0.223868 23.76 5.31187 23.9194 11.6794C22.2555 11.9032 21.6154 10.3995 19.8232 10.7194C20.0152 11.0392 20.1431 11.3595 20.3032 11.7112C21.8392 11.5192 22.4471 12.8314 24.0157 12.6712M6.89625 7.61624C5.93625 7.23224 4.88025 7.36012 4.01625 7.93612C3.88875 7.10362 3.44025 6.36862 2.76825 5.88862C2.74445 5.87305 2.71662 5.86476 2.68818 5.86476C2.65974 5.86476 2.63192 5.87305 2.60812 5.88862C2.57625 5.92049 2.57625 5.95237 2.57625 5.98462C2.70375 7.77712 1.68 9.34462 0.368245 10.7209C1.71225 11.1049 2.832 9.40837 4.56075 10.017C5.16825 9.05699 5.96887 8.25712 6.897 7.61699M12.0495 6.52949C10.9294 6.52949 10.002 7.16962 9.7455 7.96949C9.71362 8.03324 9.7455 8.06549 9.80925 8.03324C10.0331 7.93724 10.2574 7.90574 10.4812 7.90574C10.8975 7.87387 11.2811 8.06587 11.5687 8.35387C11.6647 8.73787 11.6647 9.12187 11.5687 9.47399C11.3767 9.44212 11.3126 9.28199 11.1206 9.28199C10.9286 9.28199 10.8007 9.40949 10.4805 9.40949C10.1602 9.40949 10.128 9.24937 9.93674 9.24937C9.74549 9.24937 9.64875 9.50549 9.64875 9.76124C9.64875 11.0092 10.8007 12.705 11.985 12.705C13.1692 12.705 14.3212 11.0089 14.3212 9.76124C14.3212 9.47324 14.2575 9.24937 14.0014 9.21749C13.8412 9.34499 13.6815 9.40949 13.4895 9.37762C13.1696 9.37762 13.1055 9.25012 12.9135 9.25012C12.7215 9.25012 12.7215 9.73012 12.4654 9.73012C12.3052 9.28199 12.2734 8.77012 12.4335 8.29012C12.7215 7.97024 13.1055 7.81012 13.521 7.84199C13.7449 7.84199 13.9691 7.87387 14.193 7.96949C14.2567 8.00137 14.289 7.96949 14.2567 7.90574C14.0647 7.16962 13.1366 6.52949 12.0487 6.52949M13.7767 8.32199C13.4887 8.32199 13.2007 8.41799 13.0087 8.60999C12.9769 8.67374 12.9769 8.73749 13.0087 8.83387C13.4887 8.67374 13.905 8.67374 14.1289 8.89762C14.2249 8.83387 14.2564 8.70562 14.2564 8.60962C14.2564 8.41762 14.0962 8.32162 13.7764 8.32162M9.90375 8.89612C10.1276 8.67224 10.6399 8.67224 11.1517 8.86424C11.1836 8.60812 10.7355 8.32049 10.2555 8.32049C9.93562 8.32049 9.7755 8.41649 9.7755 8.57662C9.7755 8.70412 9.80737 8.83274 9.903 8.89649M17.5837 4.67249C16.7512 4.73624 15.9836 5.02499 15.3439 5.53649C15.6 4.83262 15.9514 4.12837 16.3676 3.52049C15.3439 3.58424 14.3839 4.03237 13.6151 4.73662L13.1032 3.36037L14.2875 2.30399L12.6874 2.17649L12.0472 0.704618L11.4071 2.17649L9.807 2.30399L10.9909 3.35999L10.4471 4.76812C9.71099 4.03199 8.75099 3.61612 7.69462 3.55199C8.11087 4.19212 8.46262 4.86449 8.71837 5.56799C8.07825 5.05612 7.27837 4.73549 6.44587 4.70399C6.98962 5.37599 7.43775 6.11212 7.78987 6.88012C7.82175 6.94387 7.91737 7.00762 7.98187 6.97612H8.01375C9.25726 6.36045 10.6261 6.04015 12.0137 6.04015C13.4013 6.04015 14.7701 6.36045 16.0136 6.97612C16.0774 7.00799 16.1737 7.00799 16.2056 6.94424V6.91237C16.5896 6.07987 17.0381 5.34487 17.5819 4.67249M19.5019 9.98437C21.2299 9.37687 22.35 11.1045 23.6944 10.6882C22.4145 9.31199 21.3581 7.77637 21.4864 5.95199C21.4864 5.88824 21.4545 5.82449 21.3904 5.82449C21.3585 5.82449 21.3266 5.82449 21.2944 5.85637C20.6224 6.33637 20.1742 7.10437 20.0464 7.90387C19.1824 7.32787 18.1264 7.19999 17.1664 7.58399C18.0945 8.25599 18.8944 9.05587 19.5026 9.98399" fill="#006241"/>
</g>
<defs>
<clipPath id="clip0_0_1512">
<rect width="24" height="24" fill="white"/>
</clipPath>
</defs>
</svg>
