<svg width="28" height="28" viewBox="0 0 28 28" fill="none" xmlns="http://www.w3.org/2000/svg">
<path fill-rule="evenodd" clip-rule="evenodd" d="M25.2331 9.85225C21.5151 12.6431 18.0745 12.3423 14.9092 8.95106C21.3255 6.49164 24.7064 2.69162 28 5.94989L25.5572 9.44451H25.553V9.4497H25.5489L25.5483 9.45022V9.45541H25.5432V9.45697H25.539C25.5364 9.45697 25.5374 9.46009 25.5359 9.46009V9.46165H25.5354V9.4632H25.5343L25.5338 9.46632H25.5328L25.5317 9.4684C25.5317 9.46996 25.5296 9.46996 25.5296 9.471H25.5286V9.47359C25.5239 9.47359 25.5208 9.48035 25.5182 9.48035L25.5172 9.48294L25.5151 9.4871L25.5104 9.49021V9.49177H25.5094C25.5094 9.49489 25.5032 9.50268 25.5006 9.50424V9.50528H25.4995V9.51307H25.498V9.51515H25.4969V9.51878L25.4943 9.51982H25.4933L25.4907 9.5219V9.52294C25.4891 9.52346 25.4881 9.5245 25.4881 9.52709L25.4865 9.52917L25.4803 9.53177V9.53281L25.4787 9.53384C25.4669 9.54691 25.4559 9.56079 25.446 9.5754L25.445 9.57748H25.4439C25.4439 9.58059 25.4408 9.58423 25.4408 9.5889L25.4403 9.59046C25.4356 9.59254 25.4268 9.60293 25.4216 9.60293V9.60448C25.4123 9.60916 25.4045 9.61747 25.3941 9.62163V9.62318H25.3904V9.62474H25.3894L25.3879 9.62786C25.3858 9.62786 25.3853 9.62942 25.3832 9.62942V9.63046L25.3754 9.63565V9.63825H25.3738V9.63929C25.369 9.64331 25.3638 9.6468 25.3582 9.64967L25.352 9.65747H25.3505V9.65902L25.3484 9.66318V9.66474H25.3453C25.3453 9.72811 25.2559 9.75148 25.2559 9.79251H25.2544C25.2544 9.79719 25.244 9.80654 25.244 9.81277H25.2424C25.2409 9.81485 25.2357 9.82004 25.2357 9.82212H25.2341C25.2299 9.82679 25.2331 9.84653 25.2331 9.85225Z" fill="#ECB833"/>
<path fill-rule="evenodd" clip-rule="evenodd" d="M25.5624 9.43776C15.8681 18.2117 12.067 -2.54198 0 5.31259L13.5972 24.667" fill="#00939A"/>
</svg>
